<svg width="20" height="20" viewBox="0 0 20 20" fill="none" xmlns="http://www.w3.org/2000/svg">
<path d="M18.3155 12.3064C16.843 12.7194 15.2871 12.7329 13.8077 12.3457C12.3282 11.9584 10.9785 11.1844 9.89709 10.103C8.81571 9.02159 8.04166 7.67187 7.65441 6.19241C7.26717 4.71295 7.28071 3.15707 7.69362 1.68457C6.24187 2.08864 4.92132 2.86603 3.8635 3.93929C2.80569 5.01255 2.04753 6.34423 1.66455 7.80169C1.28156 9.25915 1.28712 10.7915 1.68066 12.2462C2.0742 13.7008 2.84199 15.0269 3.90755 16.0925C4.97312 17.1581 6.29927 17.9259 7.75391 18.3194C9.20855 18.713 10.7409 18.7185 12.1984 18.3355C13.6558 17.9525 14.9875 17.1944 16.0608 16.1366C17.134 15.0787 17.9114 13.7582 18.3155 12.3064Z" stroke="white" stroke-width="1.5" stroke-linecap="round" stroke-linejoin="round"/>
</svg>
